<?xml version="1.0" standalone="no"?>
<!DOCTYPE svg PUBLIC "-//W3C//DTD SVG 20010904//EN"
 "http://www.w3.org/TR/2001/REC-SVG-20010904/DTD/svg10.dtd">
<svg version="1.0" xmlns="http://www.w3.org/2000/svg"
 width="50.000000pt" height="50.000000pt" viewBox="0 0 50.000000 50.000000"
 preserveAspectRatio="xMidYMid meet">

<g transform="translate(0.000000,50.000000) scale(0.100000,-0.100000)"
fill="#000000" stroke="none">
<path d="M65 491 c-11 -5 -29 -19 -40 -31 -19 -20 -20 -36 -20 -211 l0 -189
28 -27 27 -28 190 0 190 0 27 28 28 27 0 190 0 190 -28 27 -27 28 -178 2 c-97
1 -186 -1 -197 -6z m280 -81 c0 -20 -6 -26 -27 -28 -25 -3 -28 0 -28 28 0 28
3 31 28 28 21 -2 27 -8 27 -28z m-134 -69 c21 -17 23 -27 24 -102 l0 -84 -35
-2 c-19 -1 -49 -4 -67 -8 -26 -6 -36 -3 -57 18 -31 32 -32 46 -5 81 13 17 34
28 60 32 22 4 39 12 39 20 0 21 -19 27 -51 14 -23 -10 -32 -10 -45 1 -15 12
-14 15 6 31 30 24 101 24 131 -1z m137 -101 c1 -77 -2 -123 -11 -140 -20 -40
-97 -47 -97 -9 0 12 7 19 19 19 27 0 31 18 31 141 l0 110 28 -3 27 -3 3 -115z
m117 -50 c9 -27 -1 -40 -31 -40 -26 0 -40 20 -30 45 8 23 53 19 61 -5z"/>
<path d="M138 229 c-27 -15 -22 -39 7 -39 20 0 25 5 25 25 0 27 -6 30 -32 14z"/>
</g>
</svg>
